<svg width="17" height="17" viewBox="0 0 17 17" fill="none" xmlns="http://www.w3.org/2000/svg">
<g clip-path="url(#clip0_2880_255)">
<path d="M13.4449 17H3.55513C1.59981 17 0 15.4002 0 13.4449V3.55513C0 1.59981 1.59981 0 3.55513 0H13.4449C15.4002 0 17 1.59981 17 3.55513V13.4449C17 15.4163 15.4163 17 13.4449 17ZM3.55513 0.646388C1.95532 0.646388 0.646388 1.95532 0.646388 3.55513V13.4449C0.646388 15.0447 1.95532 16.3536 3.55513 16.3536H13.4449C15.0447 16.3536 16.3536 15.0447 16.3536 13.4449V3.55513C16.3536 1.95532 15.0447 0.646388 13.4449 0.646388H3.55513V0.646388Z" fill="#58595B"/>
<path d="M11.6352 16.6768C11.6352 15.4002 11.6352 14.1236 11.6352 12.8308V11.7642C11.6352 11.7319 11.6514 11.7158 11.6837 11.7158H13.332H13.3481H13.3643C13.3805 11.7158 13.3966 11.6996 13.3966 11.6834C13.4128 11.5218 13.4451 11.3441 13.4613 11.1825C13.4774 11.0209 13.5097 10.8755 13.5259 10.7139C13.5582 10.5846 13.5744 10.4553 13.5905 10.3099C13.6067 10.1483 13.639 10.0028 13.6552 9.84124C13.6552 9.7766 13.6713 9.72812 13.6713 9.66348C13.6713 9.64732 13.6713 9.63116 13.6552 9.63116C13.639 9.63116 13.639 9.63116 13.6229 9.63116H11.6998C11.6675 9.63116 11.6514 9.615 11.6514 9.58268C11.6514 9.13021 11.6514 8.66158 11.6514 8.20911C11.6514 8.09599 11.6675 7.96671 11.716 7.8536C11.7968 7.6112 11.9584 7.46576 12.2008 7.40112C12.3139 7.3688 12.427 7.35265 12.5402 7.35265C12.5563 7.35265 12.5725 7.35265 12.5725 7.35265C12.7179 7.35265 12.8633 7.3688 13.0088 7.3688C13.0411 7.3688 13.0896 7.3688 13.1219 7.3688C13.639 7.35265 13.639 7.35265 13.736 7.35265V5.51044C13.6713 5.49428 13.6067 5.49428 13.5421 5.49428C13.3805 5.47812 13.235 5.46196 13.0734 5.46196C13.0249 5.46196 12.9765 5.46196 12.928 5.46196C12.6856 5.46196 12.427 5.4458 12.1846 5.4458C12.12 5.4458 12.0392 5.4458 11.9746 5.4458C11.5059 5.4458 11.0373 5.55892 10.6333 5.81747C10.1808 6.10835 9.8738 6.51234 9.67989 7.02945C9.61525 7.22337 9.56677 7.43344 9.55061 7.64352C9.50213 7.99903 9.50213 8.37071 9.55061 8.72622C9.58293 9.00093 9.56677 9.25949 9.53445 9.5342C9.50213 9.64732 9.53445 9.64732 9.45365 9.64732C8.90422 9.64732 8.35479 9.64732 7.80536 9.64732C7.7892 9.64732 7.7892 9.64732 7.77304 9.64732C7.75688 9.64732 7.74072 9.66348 7.74072 9.67964V9.6958V11.6673C7.74072 11.6996 7.75688 11.7158 7.7892 11.7158H9.45365C9.48597 11.7158 9.50213 11.7319 9.50213 11.7642C9.50213 13.3964 9.50213 15.0447 9.50213 16.6768H11.6352Z" fill="#58595B"/>
</g>
<defs>
<clipPath id="clip0_2880_255">
<rect width="17" height="17" fill="white"/>
</clipPath>
</defs>
</svg>
