<svg width="41" height="41" viewBox="0 0 41 41" fill="none" xmlns="http://www.w3.org/2000/svg">
<path d="M20.5 41C31.8031 41 41 31.8031 41 20.5C41 13.3971 37.3671 7.12702 31.8634 3.44583C31.7487 3.36738 31.6281 3.29497 31.5134 3.22255C28.3331 1.18884 24.5553 0 20.5 0C9.19694 0 0 9.19694 0 20.5C0 31.8031 9.19694 41 20.5 41ZM20.5 40.3241C18.4784 40.3241 16.5291 40.0163 14.6885 39.4551C15.1291 39.5034 15.5636 39.5336 16.0041 39.5336C16.9576 39.5336 17.9171 39.4189 18.8586 39.2016C18.8586 39.2016 19.9207 38.9542 20.3974 38.743C21.0552 38.5016 21.6949 38.2119 22.3165 37.8619C25.5752 36.0153 27.7719 32.9255 28.5202 29.4133C30.0409 24.2174 34.8989 20.5905 40.312 20.5543C40.2939 31.4591 31.4108 40.3241 20.5 40.3241ZM40.306 19.8724C35.4239 19.9086 30.9944 22.7208 28.8159 26.9572C28.8279 26.3175 28.7917 25.6718 28.7012 25.02C28.5021 23.5053 28.0313 22.057 27.3132 20.7052L27.3193 20.6991L27.3132 20.6931C28.659 19.8845 29.8176 18.8646 30.7711 17.6395L31.3203 16.8973L31.3867 16.8007V16.7947C33.7885 13.1618 34.1747 8.66588 32.491 4.73123C37.0895 8.23741 40.1129 13.7049 40.306 19.8724ZM20.5302 21.8578C16.3903 21.7854 12.4919 19.5707 10.3375 16.0102C11.8462 15.2075 13.4756 14.7429 15.1774 14.6282C15.1894 14.6584 15.2015 14.6825 15.2136 14.7127C15.3524 15.0506 15.4972 15.3886 15.6481 15.7084C15.6662 15.7386 15.6782 15.7748 15.6963 15.805C15.8593 16.1429 16.0283 16.4748 16.2093 16.7886C16.3602 17.0542 16.5171 17.3137 16.68 17.5671C16.7343 17.6516 16.7886 17.7301 16.8429 17.8145C16.9576 17.9835 17.0723 18.1585 17.1869 18.3215C17.2533 18.412 17.3197 18.5085 17.3921 18.5991C17.5068 18.7499 17.6154 18.9008 17.7361 19.0456C17.8085 19.1361 17.887 19.2327 17.9594 19.3232C18.0801 19.4681 18.1947 19.6069 18.3215 19.7457C18.3999 19.8362 18.4784 19.9207 18.5568 20.0112C18.6835 20.15 18.8163 20.2888 18.9491 20.4215C19.0275 20.5 19.106 20.5845 19.1844 20.6629C19.3353 20.8078 19.4862 20.9526 19.6431 21.0914C19.7094 21.1518 19.7758 21.2181 19.8482 21.2785C20.0715 21.4776 20.2948 21.6707 20.5302 21.8578ZM27.8081 7.42876C28.7736 6.05888 29.9926 4.93038 31.4289 4.06138C33.3842 7.74257 33.3117 12.0936 31.272 15.6903C31.2298 15.4006 31.1815 15.111 31.1272 14.8273C31.1091 14.7429 31.091 14.6644 31.0729 14.5799C31.0306 14.3687 30.9884 14.1635 30.9341 13.9523C30.9099 13.8437 30.8797 13.7351 30.8496 13.6264C30.8013 13.4454 30.753 13.2704 30.6987 13.0893C30.6625 12.9747 30.6263 12.86 30.5901 12.7454C30.5358 12.5764 30.4754 12.4074 30.4151 12.2384C30.3728 12.1238 30.3306 12.0091 30.2883 11.8945C30.222 11.7255 30.1556 11.5565 30.0832 11.3875C30.0409 11.2789 29.9926 11.1703 29.9444 11.0617C29.8659 10.8806 29.7814 10.6996 29.6909 10.5185C29.6487 10.428 29.6064 10.3375 29.5581 10.247C29.4254 9.98145 29.2866 9.71593 29.1357 9.4504C29.0331 9.26935 28.9245 9.08831 28.8159 8.91331C28.7797 8.85296 28.7434 8.79865 28.7012 8.7383C28.6228 8.6176 28.5443 8.49691 28.4658 8.37621C28.4236 8.30983 28.3753 8.24345 28.327 8.17707C28.2486 8.06241 28.1701 7.95378 28.0917 7.83912C28.0434 7.76671 27.9891 7.70032 27.9348 7.62791C27.9107 7.56756 27.8563 7.49514 27.8081 7.42876ZM26.9934 20.1017C26.9451 20.0172 26.9029 19.9327 26.8606 19.8422C26.8063 19.7336 26.752 19.625 26.7037 19.5163C26.6373 19.3715 26.577 19.2267 26.5106 19.0818C26.4623 18.9732 26.4201 18.8646 26.3778 18.756C26.3235 18.6051 26.2692 18.4542 26.2209 18.3034C26.1847 18.1947 26.1425 18.0861 26.1123 17.9775C26.064 17.8206 26.0218 17.6637 25.9795 17.5128C25.9494 17.4042 25.9192 17.2956 25.8951 17.193C25.8588 17.03 25.8226 16.8611 25.7925 16.6981C25.7744 16.5955 25.7502 16.499 25.7321 16.3964C25.7019 16.2093 25.6778 16.0222 25.6597 15.8351C25.6476 15.7567 25.6356 15.6722 25.6295 15.5938C25.6054 15.3282 25.5873 15.0567 25.5812 14.7911C25.5812 14.7368 25.5812 14.6825 25.5812 14.6282C25.5752 14.417 25.5752 14.1997 25.5873 13.9885C25.5933 13.8859 25.5993 13.7833 25.6054 13.6807C25.6175 13.5178 25.6235 13.3488 25.6416 13.1859C25.6537 13.0712 25.6718 12.9566 25.6899 12.8419C25.708 12.6911 25.7321 12.5341 25.7563 12.3833C25.7744 12.2626 25.8045 12.1479 25.8287 12.0272C25.8588 11.8824 25.889 11.7376 25.9252 11.5867C25.9554 11.466 25.9916 11.3453 26.0218 11.2306C26.064 11.0858 26.1002 10.947 26.1425 10.8082C26.1787 10.6875 26.2209 10.5729 26.2632 10.4522C26.3114 10.3134 26.3597 10.1746 26.414 10.0418C26.4623 9.92111 26.5106 9.80645 26.5589 9.69179C26.6192 9.55902 26.6735 9.42022 26.7399 9.28746C26.7942 9.1728 26.8546 9.05814 26.9089 8.94348C26.9753 8.81071 27.0477 8.67795 27.1201 8.55122C27.1805 8.43656 27.2468 8.32794 27.3132 8.21328C27.3494 8.15896 27.3856 8.09862 27.4158 8.0443C27.4279 8.06241 27.4399 8.07448 27.452 8.09258C27.6391 8.34604 27.8141 8.5995 27.9831 8.85296C28.0132 8.90124 28.0495 8.94951 28.0796 9.00383C28.2486 9.26935 28.4176 9.53488 28.5684 9.80041C28.7193 10.0659 28.8641 10.3375 28.9969 10.6091C29.0512 10.7177 29.0935 10.8203 29.1478 10.9289C29.2262 11.0979 29.3107 11.2608 29.3831 11.4298C29.4374 11.5505 29.4797 11.6772 29.534 11.7979C29.6004 11.9548 29.6668 12.1117 29.7211 12.2686C29.7694 12.3953 29.8116 12.5281 29.8538 12.6609C29.9082 12.8178 29.9625 12.9686 30.0107 13.1256C30.053 13.2643 30.0892 13.4031 30.1254 13.5419C30.1676 13.6928 30.2159 13.8437 30.2521 14.0006C30.2883 14.1454 30.3185 14.2903 30.3487 14.4351C30.3789 14.586 30.4151 14.7308 30.4452 14.8817C30.4754 15.0325 30.4996 15.1894 30.5237 15.3403C30.5478 15.4851 30.572 15.63 30.5961 15.7748C30.6203 15.9377 30.6323 16.1007 30.6504 16.2636C30.6625 16.3843 30.6806 16.511 30.6927 16.6317C29.709 18.0439 28.4658 19.2086 26.9934 20.1017ZM26.9632 7.45893C26.8606 7.61584 26.7641 7.77877 26.6735 7.93568C26.6554 7.97189 26.6313 8.00809 26.6072 8.03827C26.4684 8.27362 26.3416 8.51501 26.2209 8.76244C26.1847 8.82882 26.1545 8.90124 26.1244 8.97365C26.0399 9.15469 25.9554 9.33574 25.883 9.51678C25.8468 9.60126 25.8166 9.67972 25.7804 9.7642C25.708 9.95128 25.6356 10.1384 25.5752 10.3254C25.5511 10.3918 25.5269 10.4642 25.5028 10.5306C25.4183 10.7841 25.3459 11.0436 25.2795 11.297C25.2674 11.3393 25.2614 11.3875 25.2493 11.4358C25.195 11.6531 25.1528 11.8643 25.1105 12.0815C25.0924 12.166 25.0804 12.2505 25.0683 12.329C25.0381 12.516 25.0079 12.7031 24.9838 12.8902C24.9717 12.9747 24.9657 13.0531 24.9536 13.1376C24.9295 13.373 24.9114 13.6083 24.8993 13.8437C24.8993 13.8739 24.8933 13.904 24.8933 13.9342C24.8812 14.1997 24.8812 14.4653 24.8873 14.7308C24.8873 14.8032 24.8933 14.8817 24.8993 14.9541C24.9054 15.1472 24.9174 15.3403 24.9355 15.5334C24.9416 15.6179 24.9536 15.7084 24.9597 15.7929C24.9838 15.9921 25.0079 16.1852 25.0381 16.3843C25.0502 16.4567 25.0562 16.5231 25.0683 16.5955C25.1166 16.855 25.1649 17.1205 25.2312 17.38C25.2433 17.4344 25.2614 17.4826 25.2735 17.5369C25.3157 17.6938 25.3519 17.8507 25.4002 18.0077C25.2795 17.8809 25.1588 17.7542 25.0321 17.6335C25.014 17.6154 24.9898 17.5913 24.9717 17.5732C24.7786 17.38 24.5795 17.199 24.3743 17.024C24.3321 16.9878 24.2958 16.9576 24.2536 16.9214C24.0846 16.7766 23.9157 16.6438 23.7346 16.511C23.6863 16.4748 23.632 16.4326 23.5837 16.3964C23.3786 16.2455 23.1734 16.1007 22.9622 15.9679C22.9501 15.9619 22.938 15.9498 22.926 15.9438C22.6966 15.7989 22.4613 15.6601 22.2259 15.5274C22.1837 15.5032 22.1354 15.4791 22.0932 15.455C21.9001 15.3524 21.7009 15.2498 21.5078 15.1593C21.4475 15.1291 21.3931 15.1049 21.3328 15.0748C21.1095 14.9722 20.8862 14.8756 20.6569 14.7911C20.6388 14.7851 20.6147 14.773 20.5966 14.767C20.3491 14.6704 20.0957 14.586 19.8362 14.5075C19.7758 14.4894 19.7155 14.4713 19.6491 14.4532C19.456 14.3928 19.2568 14.3446 19.0577 14.2963C18.9792 14.2782 18.9068 14.2601 18.8284 14.242C18.6111 14.1937 18.3939 14.1515 18.1706 14.1152C18.1283 14.1092 18.0861 14.0971 18.0439 14.0911C17.7844 14.0489 17.5249 14.0187 17.2593 13.9946C17.1809 13.9885 17.1024 13.9825 17.024 13.9764C16.8309 13.9583 16.6317 13.9523 16.4326 13.9463C16.3481 13.9463 16.2636 13.9402 16.1731 13.9402C16.1188 13.9402 16.0584 13.9342 16.0041 13.9342C15.8774 13.9342 15.7507 13.9342 15.6239 13.9402C14.1394 9.89093 14.2842 5.34678 16.0102 1.38195C20.2948 1.91905 24.2596 4.12776 26.9632 7.45893ZM21.6164 21.8216C21.4957 21.7311 21.375 21.6406 21.2543 21.55C21.1457 21.4656 21.0371 21.3871 20.9285 21.3026C20.7897 21.194 20.6569 21.0793 20.5241 20.9647C20.4276 20.8802 20.325 20.7957 20.2284 20.7112C20.0957 20.5905 19.9689 20.4698 19.8362 20.3431C19.7457 20.2586 19.6491 20.1681 19.5586 20.0836C19.4319 19.9569 19.3051 19.8181 19.1784 19.6853C19.0939 19.5948 19.0094 19.5103 18.9249 19.4198C18.7982 19.281 18.6835 19.1361 18.5628 18.9913C18.4844 18.9008 18.4059 18.8163 18.3335 18.7198C18.2128 18.5689 18.0982 18.412 17.9775 18.2551C17.9111 18.1646 17.8447 18.0801 17.7783 17.9895C17.6516 17.8145 17.5369 17.6395 17.4162 17.4585C17.368 17.38 17.3137 17.3076 17.2593 17.2292C17.0964 16.9697 16.9335 16.7041 16.7826 16.4386C16.6317 16.1731 16.4929 15.9076 16.3602 15.63C16.33 15.5757 16.3059 15.5213 16.2757 15.461C16.149 15.1955 16.0222 14.9179 15.9076 14.6342C15.9015 14.6161 15.8955 14.598 15.8895 14.586C15.9498 14.586 16.0102 14.586 16.0765 14.586C16.2153 14.586 16.3541 14.592 16.4929 14.598C16.6197 14.6041 16.7464 14.6101 16.8731 14.6161C17.03 14.6282 17.1809 14.6403 17.3378 14.6584C17.4464 14.6704 17.5611 14.6825 17.6697 14.7006C17.8326 14.7248 17.9895 14.7489 18.1525 14.773C18.2551 14.7911 18.3577 14.8153 18.4663 14.8334C18.6232 14.8636 18.7861 14.8998 18.943 14.936C19.0456 14.9601 19.1482 14.9903 19.2568 15.0205C19.4077 15.0627 19.5646 15.1049 19.7155 15.1532C19.8241 15.1894 19.9327 15.2256 20.0414 15.2679C20.1802 15.3162 20.325 15.3644 20.4638 15.4187C20.5845 15.467 20.6991 15.5153 20.8198 15.5696C20.9466 15.6239 21.0673 15.6722 21.194 15.7326C21.3328 15.7989 21.4656 15.8714 21.6044 15.9377C21.7009 15.986 21.8035 16.0343 21.9001 16.0886C22.0992 16.1972 22.2923 16.3179 22.4854 16.4386C22.5156 16.4567 22.5518 16.4748 22.582 16.4929C22.8113 16.6378 23.0346 16.7947 23.2518 16.9576C23.276 16.9757 23.3001 16.9938 23.3182 17.0119C23.5113 17.1568 23.6984 17.3076 23.8794 17.4585C23.9338 17.5068 23.9881 17.555 24.0424 17.6033C24.1872 17.7361 24.3381 17.8628 24.4769 18.0016C24.5433 18.068 24.6036 18.1344 24.67 18.2008C24.7967 18.3275 24.9174 18.4542 25.0381 18.587C25.1105 18.6654 25.1769 18.7439 25.2433 18.8284C25.3519 18.9551 25.4606 19.0818 25.5631 19.2146C25.6295 19.3051 25.6959 19.3956 25.7683 19.4862C25.8649 19.6129 25.9554 19.7457 26.0459 19.8784C26.1123 19.975 26.1726 20.0776 26.239 20.1741C26.2933 20.2526 26.3416 20.3371 26.3899 20.4215C24.8933 21.2362 23.2941 21.7009 21.6164 21.8216ZM20.5 0.681925C24.2958 0.681925 27.8443 1.75611 30.8616 3.61481C29.4918 4.47777 28.321 5.57006 27.3675 6.87356L27.3615 6.8615L27.3555 6.87356C24.8329 3.84413 21.3026 1.73197 17.4404 0.91728C18.4361 0.760377 19.462 0.681925 20.5 0.681925ZM15.28 1.38195C13.6264 5.37091 13.5057 9.89093 14.9299 13.9523H14.9179L14.9239 13.9644C13.0773 14.1213 11.3212 14.6584 9.69782 15.5757L9.40212 15.7446L9.57109 16.0403C11.8402 20.0474 16.161 22.5337 20.7354 22.5337C20.9586 22.5337 21.4173 22.5156 21.4173 22.5156L22.4492 22.413C23.9398 22.2078 25.37 21.7492 26.7158 21.0311C27.3917 22.3044 27.8382 23.6743 28.0253 25.1105C28.6228 29.5883 26.7158 33.9213 23.1251 36.5222C23.4329 36.0817 23.6924 35.5989 23.8915 35.0739C24.7786 32.7324 24.4346 29.8719 23.0346 27.9469C21.1638 25.37 13.6506 20.0233 1.36385 25.6657C0.91728 24.0182 0.67589 22.2863 0.67589 20.5C0.681925 11.3815 6.87356 3.68119 15.28 1.38195ZM22.4915 28.3452C23.7407 30.0651 24.0605 32.7324 23.2579 34.8325C22.8415 35.9308 21.9845 37.2766 20.2164 38.0852C16.6559 39.4068 12.6548 38.9965 9.39608 36.8843L9.38402 36.9024C5.69679 34.398 2.89667 30.6806 1.55696 26.3296C13.4816 20.8017 20.7052 25.889 22.4915 28.3452Z" fill="white"/>
</svg>
