<svg width="17" height="17" viewBox="0 0 17 17" fill="none" xmlns="http://www.w3.org/2000/svg">
<path d="M15.9001 15.19L10.5601 9.85C12.5501 7.5 12.4601 3.97 10.2401 1.74999C7.90012 -0.590005 4.09012 -0.590005 1.75012 1.74999C-0.589883 4.08999 -0.589883 7.89999 1.75012 10.24C2.92012 11.41 4.46012 11.99 5.99012 11.99C7.37012 11.99 8.73012 11.49 9.84012 10.55L15.1801 15.89C15.2801 15.99 15.4101 16.04 15.5301 16.04C15.6501 16.04 15.7901 15.99 15.8801 15.89C16.0901 15.7 16.0901 15.38 15.9001 15.19ZM2.46012 9.52999C0.510117 7.58 0.510117 4.41 2.46012 2.46C4.41012 0.509995 7.58012 0.509995 9.53012 2.46C11.4801 4.41 11.4801 7.58 9.53012 9.52999C7.58012 11.48 4.41012 11.48 2.46012 9.52999Z" fill="#58595B"/>
</svg>
